<svg width="49" height="48" viewBox="0 0 49 48" fill="none" xmlns="http://www.w3.org/2000/svg">
<path d="M7 0C3.13906 0 0 3.04938 0 6.8V40.8C0 44.5506 3.13906 47.6 7 47.6H42C45.8609 47.6 49 44.5506 49 40.8V6.8C49 3.04938 45.8609 0 42 0H7ZM21.875 33.15V26.35H14.875C13.4203 26.35 12.25 25.2131 12.25 23.8C12.25 22.3869 13.4203 21.25 14.875 21.25H21.875V14.45C21.875 13.0369 23.0453 11.9 24.5 11.9C25.9547 11.9 27.125 13.0369 27.125 14.45V21.25H34.125C35.5797 21.25 36.75 22.3869 36.75 23.8C36.75 25.2131 35.5797 26.35 34.125 26.35H27.125V33.15C27.125 34.5631 25.9547 35.7 24.5 35.7C23.0453 35.7 21.875 34.5631 21.875 33.15Z" fill="black"/>
</svg>
