<svg width="34" height="34" viewBox="0 0 34 34" fill="none" xmlns="http://www.w3.org/2000/svg">
<path d="M14.8751 23.3751C15.9913 23.3751 17.0966 23.1552 18.1279 22.728C19.1591 22.3009 20.0962 21.6748 20.8855 20.8855C21.6748 20.0962 22.3009 19.1591 22.728 18.1279C23.1552 17.0966 23.3751 15.9913 23.3751 14.8751C23.3751 13.7588 23.1552 12.6535 22.728 11.6223C22.3009 10.591 21.6748 9.65395 20.8855 8.86465C20.0962 8.07536 19.1591 7.44925 18.1279 7.02209C17.0966 6.59492 15.9913 6.37506 14.8751 6.37506C12.6207 6.37506 10.4587 7.2706 8.86465 8.86465C7.27059 10.4587 6.37506 12.6207 6.37506 14.8751C6.37506 17.1294 7.27059 19.2914 8.86465 20.8855C10.4587 22.4795 12.6207 23.3751 14.8751 23.3751ZM23.8284 21.8252L28.9001 26.8969C29.0353 27.0277 29.1431 27.1841 29.2172 27.357C29.2913 27.5299 29.3303 27.7158 29.3318 27.9039C29.3333 28.092 29.2973 28.2785 29.2259 28.4526C29.1546 28.6266 29.0493 28.7847 28.9162 28.9176C28.7831 29.0505 28.6248 29.1556 28.4507 29.2267C28.2765 29.2978 28.09 29.3335 27.9018 29.3318C27.7137 29.33 27.5279 29.2908 27.3551 29.2164C27.1823 29.1421 27.0261 29.034 26.8955 28.8986L21.8238 23.827C19.5465 25.5948 16.681 26.4282 13.8108 26.1577C10.9406 25.8871 8.28134 24.5329 6.37443 22.3707C4.46752 20.2085 3.45628 17.4009 3.54658 14.5194C3.63688 11.6378 4.82193 8.89903 6.86048 6.86048C8.89903 4.82193 11.6378 3.63688 14.5194 3.54658C17.4009 3.45628 20.2085 4.46752 22.3707 6.37443C24.5329 8.28134 25.8871 10.9406 26.1577 13.8108C26.4282 16.681 25.5948 19.5465 23.827 21.8238L23.8284 21.8252Z" fill="black"/>
</svg>
